<svg xmlns="http://www.w3.org/2000/svg" viewBox="0 0 1024 1024"><path d="M976.75 396.125c-3.693-6.21-10.37-10.31-18.004-10.31-.79 0-1.573.045-2.34.13l.094-.008c-7.082.172-15.423.27-23.787.27-112.96 0-221.744-17.887-323.672-50.982l7.408 2.08c15.736-67.007 27.7-146.668 33.4-228.057l.275-4.903c.04-.512.06-1.11.06-1.71 0-13.252-10.74-23.994-23.992-23.994-2.752 0-5.398.465-7.86 1.32l.168-.052c-92.27 31.69-198.585 49.988-309.174 49.988-84.154 0-165.834-10.595-243.777-30.524l6.795 1.473c-1.618-.383-3.475-.602-5.383-.602-6.31 0-12.06 2.4-16.386 6.335l.02-.018c-4.774 4.403-7.754 10.69-7.754 17.673 0 1.23.092 2.437.27 3.616l-.016-.134C91.008 451.968 197.402 657.71 329.32 685.14c24.032 140.895 80.903 231.808 167.118 254.922 12.597 3.492 27.06 5.5 41.994 5.5h.138-.007c147.125 0 312.312-195.312 440.938-526.937 1.024-2.572 1.617-5.553 1.617-8.673 0-5.18-1.635-9.976-4.417-13.903l.05.074zM95.97 155.187c64.487 14.425 138.55 22.69 214.546 22.69 102.978 0 202.41-15.176 296.185-43.413l-7.262 1.88c-6.442 70.407-16.585 133.753-30.6 195.63l1.89-9.92c-75.72-27.668-140.366-58.714-201.437-95.13l5.398 2.982c-3.494-2.053-7.696-3.266-12.18-3.266-3.723 0-7.25.835-10.405 2.33l.148-.064c-7.08 3.41-12.16 10-13.42 17.863l-.02.136c-1.167 7.552-1.987 14.742-3.066 22.2-1.29-5.662-4.477-10.43-8.842-13.718l-.06-.043c-3.908-2.857-8.81-4.572-14.11-4.572-7.946 0-14.992 3.85-19.374 9.787l-.046.066c-10.688 14.72-26.56 32.28-41.625 32.53h-.34c-14.22 0-29.345-15.5-39.564-28.562-4.43-5.757-11.322-9.43-19.072-9.43-13.254 0-24 10.744-24 24 0 5.693 1.984 10.924 5.297 15.04l-.036-.047c16.79 26.268 44.717 44.144 76.96 46.973l.385.027h1.216c34.258-3.742 63.183-23.624 79.326-51.774l.268-.507c.427-.763.855-1.678 1.22-2.624l.053-.153c-7.953 58.327-13.356 114.01-15.692 166.042-20.683 13.41-38.104 29.885-52.137 49l-.382.547c-3.027 3.973-4.85 9.008-4.85 14.468 0 13.258 10.748 24.007 24.007 24.007 7.798 0 14.728-3.718 19.113-9.48l.043-.058c4.358-5.773 8.523-9.672 12.776-14.426-.002.843-.004 1.84-.004 2.836 0 40.144 2.133 79.79 6.29 118.83l-.418-4.856C243.322 601.122 146.728 462.785 95.97 155.188zm412.905 738.5C406.03 866.126 328.563 668.564 381.187 288.845c155.49 89.37 341.447 143.016 539.74 145.4l.697.008c-144.188 354.75-309.688 486.81-412.75 459.436zM448.22 515.72c14.686-11.94 35.81-25.345 51.843-21.377 17.03 4.188 30.25 27.532 38.344 46.406 3.77 8.615 12.218 14.525 22.048 14.525 13.252 0 23.995-10.743 23.995-23.995 0-3.422-.716-6.677-2.008-9.623l.06.154c-10.61-34.863-36.782-62.05-70.216-73.85l-.786-.242c-4.92-.786-10.59-1.235-16.366-1.235-30.17 0-57.48 12.25-77.226 32.045l-.002.002c-5.437 4.433-8.882 11.132-8.882 18.635 0 13.248 10.74 23.988 23.988 23.988 5.79 0 11.102-2.052 15.247-5.468l-.042.033zm212.405 56.905c14.625-11.904 36.25-25.408 51.75-21.376 17.062 4.187 30.312 27.562 38.375 46.374 3.755 8.648 12.22 14.587 22.074 14.587 13.253 0 23.996-10.742 23.996-23.995 0-3.42-.716-6.675-2.006-9.62l.06.154c-10.63-34.88-36.82-62.077-70.276-73.884l-.787-.242c-4.983-.812-10.728-1.276-16.582-1.276-30.1 0-57.333 12.27-76.972 32.08l-.008.01c-5.433 4.436-8.874 11.134-8.874 18.637 0 13.26 10.75 24.008 24.008 24.008 5.806 0 11.13-2.06 15.282-5.49l-.04.032zm-19.75 133.187c-17.252 19.3-42.22 31.39-70.014 31.39-1.797 0-3.583-.052-5.356-.15l.246.01c-21.906-4.938-42.375-28.25-60.875-69.248-3.86-8.4-12.198-14.126-21.875-14.126-13.255 0-24 10.745-24 24 0 3.578.783 6.974 2.187 10.024l-.062-.15c25.375 56.25 56.125 87.75 94.062 96.314 5.872 1.39 12.614 2.188 19.543 2.188h.38-.02c37.94-2.852 71.648-18.963 96.94-43.658l-.03.03c5.195-4.436 8.47-10.992 8.47-18.313 0-13.273-10.76-24.032-24.033-24.032-5.952 0-11.398 2.165-15.596 5.748l.034-.028z" fill="#333333"/></svg>