<svg xmlns="http://www.w3.org/2000/svg" fill="none" height="48" viewBox="0 0 48 48" width="48"><g fill="#333333"><path d="m18 24v-4h-4v4z" fill="#333333"/><path d="m18 26v4h-4v-4z" fill="#333333"/><path d="m26 24v-4h-4v4z" fill="#333333"/><path d="m26 26v4h-4v-4z" fill="#333333"/><path d="m34 24v-4h-4v4z" fill="#333333"/><path d="m34 26v4h-4v-4z" fill="#333333"/><path clip-rule="evenodd" d="m20 4h8c1.6569 0 3 1.34315 3 3v7h5c1.6569 0 3 1.3431 3 3v25h4v2h-38v-2h4v-25c0-1.6569 1.3431-3 3-3h5v-7c0-1.65685 1.3431-3 3-3zm-9 38h9v-6c0-2.2091 1.7909-4 4-4s4 1.7909 4 4v6h9v-25c0-.5523-.4477-1-1-1h-5.1707c-.4118 1.1652-1.5231 2-2.8293 2h-8c-1.3062 0-2.4175-.8348-2.8293-2h-5.1707c-.5523 0-1 .4477-1 1zm14-34c0-.55228-.4477-1-1-1s-1 .44772-1 1v2h-2c-.5523 0-1 .4477-1 1s.4477 1 1 1h2v2c0 .5523.4477 1 1 1s1-.4477 1-1v-2h2c.5523 0 1-.4477 1-1s-.4477-1-1-1h-2z" fill-rule="evenodd" fill="#333333"/></g></svg>