<svg xmlns="http://www.w3.org/2000/svg" height="32" viewBox="0 0 32 32" width="32"><path d="m27 11h2v4h-2z" fill="#333333"/><path d="m3 11h2v4h-2z" fill="#333333"/><path d="m20 20h2v2h-2z" fill="#333333"/><path d="m10 20h2v2h-2z" fill="#333333"/><path d="m21 4h-10a5.0059 5.0059 0 0 0 -5 5v14a2.0023 2.0023 0 0 0 2 2v3h2v-3h12v3h2v-3a2.0027 2.0027 0 0 0 2-2v-14a5.0059 5.0059 0 0 0 -5-5zm3 6 .0009 6h-16.0009v-6zm-13-4h10a2.995 2.995 0 0 1 2.8157 2h-15.6314a2.995 2.995 0 0 1 2.8157-2zm-3 17v-5h16.0012l.0008 5z" fill="#333333"/><path d="m0 0h32v32h-32z" fill="none"/></svg>